<svg version="1.1" xmlns="http://www.w3.org/2000/svg" viewBox="-2482.2003670456706 -1562.6240341186524 5513.24049785164 2476.032064819336"><desc>Created with Snap</desc><defs></defs><g><g transform="matrix(24.5026,0,0,24.5026,-2481.5582,-1562.0125)"><g><path d="M74.265,60.41c0.964,2.929,1.401,5.966,1.261,9.015c2.584-0.989,5.013-2.49,7.095-4.572c0.244-0.244,0.41-0.527,0.637-0.78   c0.018-0.341,0.105-0.659,0.105-1.004c0-2.924-0.646-5.691-1.764-8.203C79.522,57.139,77.045,59.022,74.265,60.41z" fill="#adefd1" style=""></path><path d="M54.863,81.605c2.509,1.112,5.276,1.759,8.2,1.759c0.349,0,0.664-0.085,1.004-0.103c0.253-0.227,0.541-0.393,0.781-0.637   c2.08-2.085,3.585-4.516,4.572-7.104c-3.049,0.14-6.086-0.292-9.01-1.257C59.022,77.049,57.137,79.528,54.863,81.605z" fill="#adefd1" style=""></path><path d="M40.588,74.265c-2.925,0.965-5.965,1.396-9.013,1.257c0.988,2.588,2.49,5.023,4.573,7.104   c0.242,0.244,0.528,0.41,0.779,0.637c0.339,0.018,0.661,0.103,1.003,0.103c2.926,0,5.691-0.646,8.202-1.759   C43.861,79.528,41.976,77.049,40.588,74.265z" fill="#adefd1" style=""></path><path d="M26.731,60.41c-2.781-1.388-5.26-3.271-7.337-5.545c-1.112,2.512-1.758,5.279-1.758,8.203c0,0.345,0.085,0.663,0.1,1.004   c0.229,0.253,0.395,0.536,0.639,0.78c2.082,2.082,4.515,3.583,7.098,4.572C25.333,66.376,25.767,63.339,26.731,60.41z" fill="#adefd1" style=""></path><path d="M26.731,40.592c-0.964-2.929-1.398-5.966-1.259-9.016c-2.583,0.989-5.014,2.491-7.098,4.572   c-0.244,0.245-0.41,0.528-0.639,0.781c-0.015,0.341-0.1,0.659-0.1,1.004c0,2.924,0.646,5.69,1.76,8.205   C21.471,43.863,23.95,41.979,26.731,40.592z" fill="#adefd1" style=""></path><path d="M46.132,19.397c-2.511-1.114-5.275-1.76-8.202-1.76c-0.342,0-0.664,0.084-1.003,0.102   c-0.251,0.228-0.537,0.393-0.779,0.638c-2.083,2.08-3.585,4.515-4.573,7.103c3.048-0.14,6.088,0.293,9.013,1.257   C41.976,23.952,43.861,21.475,46.132,19.397z" fill="#adefd1" style=""></path><path d="M60.41,26.736c2.924-0.964,5.961-1.396,9.01-1.257c-0.99-2.588-2.492-5.017-4.572-7.103   c-0.24-0.245-0.528-0.41-0.781-0.638c-0.34-0.018-0.659-0.102-1.004-0.102c-2.924,0-5.691,0.646-8.2,1.76   C57.137,21.475,59.022,23.952,60.41,26.736z" fill="#adefd1" style=""></path><path d="M82.621,36.148c-2.082-2.081-4.511-3.583-7.095-4.572c0.14,3.05-0.297,6.087-1.261,9.016   c2.78,1.388,5.257,3.271,7.334,5.547c1.117-2.515,1.764-5.281,1.764-8.205c0-0.345-0.088-0.663-0.105-1.004   C83.031,36.677,82.865,36.394,82.621,36.148z" fill="#adefd1" style=""></path><path d="M58.228,63.068c0-0.166-0.048-0.319-0.052-0.484c-1.061-0.21-2.09-0.498-3.099-0.834c-0.462,0.921-0.89,1.851-1.469,2.719   c0.113,0.122,0.19,0.267,0.309,0.384c1.143,1.14,2.404,2.069,3.718,2.881C57.993,66.228,58.228,64.683,58.228,63.068z" fill="#adefd1" style=""></path><path d="M43.362,67.733c1.313-0.812,2.574-1.741,3.715-2.881c0.12-0.117,0.199-0.262,0.312-0.384   c-0.581-0.868-1.008-1.798-1.471-2.719c-1.008,0.336-2.038,0.624-3.1,0.834c-0.002,0.165-0.048,0.318-0.048,0.484   C42.771,64.683,43.006,66.228,43.362,67.733z" fill="#adefd1" style=""></path><path d="M36.148,53.922c-1.139,1.14-2.068,2.4-2.88,3.717c1.503,0.355,3.051,0.59,4.663,0.59c0.166,0,0.318-0.044,0.484-0.048   c0.209-1.06,0.495-2.094,0.833-3.102c-0.918-0.463-1.848-0.886-2.716-1.471C36.411,53.726,36.269,53.805,36.148,53.922z" fill="#adefd1" style=""></path><path d="M38.415,42.821c-0.166-0.006-0.319-0.05-0.484-0.05c-1.612,0-3.159,0.236-4.663,0.591c0.812,1.318,1.739,2.578,2.88,3.717   c0.12,0.118,0.262,0.196,0.384,0.314c0.868-0.583,1.797-1.008,2.716-1.471C38.91,44.916,38.625,43.881,38.415,42.821z" fill="#adefd1" style=""></path><path d="M42.771,37.934c0,0.166,0.046,0.318,0.048,0.484c1.062,0.21,2.092,0.498,3.1,0.834c0.462-0.921,0.89-1.851,1.471-2.719   c-0.113-0.123-0.192-0.267-0.312-0.385c-1.141-1.139-2.402-2.066-3.715-2.879C43.006,34.774,42.771,36.319,42.771,37.934z" fill="#adefd1" style=""></path><path d="M57.635,33.27c-1.314,0.812-2.575,1.74-3.718,2.879c-0.118,0.118-0.195,0.262-0.309,0.385   c0.579,0.868,1.007,1.798,1.469,2.719c1.008-0.336,2.038-0.624,3.099-0.834c0.004-0.166,0.052-0.318,0.052-0.484   C58.228,36.319,57.993,34.774,57.635,33.27z" fill="#adefd1" style=""></path><path d="M63.063,42.771c-0.166,0-0.314,0.044-0.48,0.05c-0.209,1.06-0.498,2.095-0.838,3.102c0.921,0.463,1.851,0.888,2.719,1.471   c0.122-0.118,0.266-0.196,0.384-0.314c1.139-1.139,2.067-2.398,2.883-3.717C66.226,43.008,64.678,42.771,63.063,42.771z" fill="#adefd1" style=""></path><path d="M48.074,49.493c-0.035,0.676-0.035,1.339,0,2.012c0.452,0.502,0.921,0.969,1.42,1.423c0.671,0.034,1.335,0.034,2.007,0   c0.5-0.454,0.972-0.926,1.423-1.423c0.035-0.673,0.033-1.336,0-2.008c-0.451-0.502-0.921-0.969-1.42-1.423   c-0.673-0.035-1.34-0.035-2.012,0C48.995,48.528,48.524,48.995,48.074,49.493z" fill="#adefd1" style=""></path><path d="M64.464,53.608c-0.868,0.585-1.798,1.008-2.719,1.471c0.34,1.008,0.628,2.042,0.838,3.102   c0.166,0.004,0.314,0.048,0.48,0.048c1.615,0,3.163-0.234,4.668-0.59c-0.816-1.316-1.745-2.577-2.883-3.717   C64.73,53.805,64.586,53.726,64.464,53.608z" fill="#adefd1" style=""></path><path d="M72.271,55.926c2.583-1.327,4.827-3.173,6.615-5.425c-1.788-2.252-4.031-4.098-6.615-5.425   c-1.091,1.929-2.357,3.784-3.998,5.425C69.914,52.142,71.179,53.996,72.271,55.926z" fill="#adefd1" style=""></path><path d="M62.138,31.245c0.585,2.133,0.925,4.367,0.925,6.688c2.322,0,4.555,0.341,6.689,0.93c0.868-2.745,1.143-5.603,0.82-8.436   C67.74,30.104,64.879,30.375,62.138,31.245z" fill="#adefd1" style=""></path><path d="M50.498,22.11c-2.253,1.794-4.099,4.033-5.424,6.616c1.927,1.096,3.782,2.361,5.424,4.002   c1.644-1.641,3.498-2.906,5.426-4.002C54.597,26.144,52.752,23.904,50.498,22.11z" fill="#adefd1" style=""></path><path d="M37.931,37.934c0-2.321,0.34-4.556,0.927-6.688c-2.74-0.87-5.601-1.141-8.432-0.817c-0.323,2.833-0.05,5.69,0.817,8.436   C33.377,38.274,35.612,37.934,37.931,37.934z" fill="#adefd1" style=""></path><path d="M22.108,50.501c1.794,2.252,4.034,4.098,6.618,5.425c1.091-1.93,2.356-3.784,3.999-5.425   c-1.643-1.641-2.908-3.496-4.001-5.425C26.143,46.403,23.902,48.249,22.108,50.501z" fill="#adefd1" style=""></path><path d="M38.858,69.757c-0.587-2.133-0.927-4.367-0.927-6.688c-2.319,0-4.553-0.341-6.688-0.93   c-0.868,2.745-1.14,5.604-0.817,8.436C33.257,70.896,36.118,70.627,38.858,69.757z" fill="#adefd1" style=""></path><path d="M50.498,78.891c2.255-1.793,4.1-4.032,5.426-6.616c-1.929-1.095-3.782-2.36-5.426-4c-1.642,1.64-3.497,2.905-5.424,4   C46.401,74.858,48.245,77.098,50.498,78.891z" fill="#adefd1" style=""></path><path d="M63.063,63.068c0,2.321-0.34,4.556-0.925,6.688c2.741,0.87,5.602,1.139,8.435,0.817c0.323-2.832,0.048-5.695-0.82-8.436   C67.618,62.728,65.385,63.068,63.063,63.068z" fill="#adefd1" style=""></path><path d="M87.425,44.026c-0.571,2.304-1.457,4.476-2.614,6.475c1.157,1.999,2.043,4.177,2.614,6.475   C88.844,52.771,88.844,48.231,87.425,44.026z" fill="#adefd1" style=""></path><path d="M81.233,29.05c-1.981-4.041-5.244-7.301-9.286-9.282c1.249,2.063,2.147,4.268,2.745,6.541   C76.966,26.907,79.165,27.802,81.233,29.05z" fill="#adefd1" style=""></path><path d="M56.971,13.576c-4.204-1.418-8.742-1.418-12.947,0c2.3,0.571,4.473,1.453,6.473,2.614   C52.5,15.029,54.671,14.147,56.971,13.576z" fill="#adefd1" style=""></path><path d="M29.047,19.768c-4.042,1.981-7.301,5.241-9.284,9.282c2.066-1.248,4.268-2.143,6.541-2.741   C26.904,24.035,27.798,21.831,29.047,19.768z" fill="#adefd1" style=""></path><path d="M13.571,56.973c0.574-2.3,1.458-4.473,2.616-6.472c-1.159-1.999-2.04-4.171-2.616-6.472   C12.158,48.231,12.158,52.771,13.571,56.973z" fill="#adefd1" style=""></path><path d="M19.765,71.952c1.981,4.041,5.24,7.297,9.279,9.282c-1.248-2.068-2.141-4.269-2.741-6.542   C24.031,74.095,21.829,73.2,19.765,71.952z" fill="#adefd1" style=""></path><path d="M44.024,87.426c4.205,1.418,8.746,1.418,12.947,0c-2.3-0.572-4.472-1.453-6.474-2.614   C48.498,85.973,46.324,86.854,44.024,87.426z" fill="#adefd1" style=""></path><path d="M71.952,81.234c4.037-1.985,7.3-5.241,9.281-9.282c-2.068,1.248-4.267,2.143-6.541,2.74   C74.095,76.966,73.2,79.166,71.952,81.234z" fill="#adefd1" style=""></path></g><desc>Created with Snap</desc><defs></defs></g><g><g transform="matrix(1.024,0,0,-1.024,0,0)"><path d="M36 -87Q9 -72 1 -56Q-6 -40 -6 -28Q-6 -1 14 45Q34 92 67 151Q101 211 143 276Q110 278 82 279Q55 280 20 280L-3 280Q10 314 39 327Q69 341 109 341Q126 341 144 339Q163 337 183 335Q233 408 283 475Q333 542 377 595Q422 648 455 680Q497 721 518 721Q531 721 547 711Q563 701 581 685Q571 677 555 643Q540 610 522 559Q505 508 487 447Q470 386 456 323Q442 261 433 204Q425 147 425 103Q425 64 433 44Q441 24 461 24Q485 24 518 59Q552 95 593 173L608 157Q578 75 529 23Q481 -29 427 -29Q381 -29 361 10Q342 50 342 119Q342 145 345 177Q349 209 356 251Q312 258 277 262Q243 266 212 270Q164 185 119 93Q74 2 36 -87ZM365 295Q379 357 397 419Q416 482 436 539Q457 597 476 642Q446 619 407 573Q369 527 327 463Q285 399 242 324Q273 317 304 309Q335 302 365 295ZM664 -38Q643 -38 633 -5Q623 29 623 72Q623 119 639 184Q655 249 681 321Q707 394 739 463Q772 533 806 589Q841 646 872 680Q903 714 926 714Q946 714 956 691Q966 669 966 646Q966 618 953 578Q941 539 919 494Q897 449 867 405Q838 361 804 325Q770 289 733 267Q721 235 713 203Q705 172 701 143Q698 114 698 88Q698 81 698 75Q699 69 700 63Q707 81 718 110Q730 140 746 173Q763 206 785 236Q808 266 837 284Q866 303 901 303Q933 303 951 288Q970 274 977 252Q985 230 985 207Q985 176 974 147Q964 119 953 93Q943 68 943 45Q943 27 951 19Q959 11 971 11Q993 11 1022 33Q1052 55 1081 91Q1110 128 1130 172L1145 157Q1123 107 1092 66Q1062 25 1025 0Q988 -24 947 -24Q910 -24 891 -5Q872 15 872 44Q872 65 879 90Q887 116 894 142Q901 169 901 191Q901 215 890 225Q880 235 865 235Q840 235 820 215Q800 195 783 164Q767 133 753 98Q739 64 725 32Q712 1 697 -19Q682 -38 664 -38ZM752 323Q778 346 803 378Q828 411 849 447Q871 483 887 517Q903 551 912 578Q922 605 923 620Q923 622 922 623Q922 624 921 624Q915 624 895 598Q875 573 848 530Q822 487 796 433Q770 379 752 323ZM1623 -31Q1585 -31 1567 -9Q1549 14 1549 45Q1549 69 1556 92Q1563 116 1570 139Q1578 162 1578 181Q1578 199 1570 206Q1563 213 1553 213Q1529 213 1499 176Q1469 140 1423 72Q1407 48 1394 22Q1381 -4 1370 -23Q1362 -23 1348 -20Q1334 -17 1323 -12Q1313 -7 1313 1Q1313 10 1323 36Q1333 62 1346 97Q1359 132 1368 166Q1378 201 1378 225Q1378 240 1373 248Q1368 257 1356 257Q1335 257 1305 231Q1275 206 1242 165Q1209 124 1180 73Q1152 23 1134 -27Q1123 -27 1108 -23Q1093 -19 1082 -13Q1071 -7 1071 -2Q1071 1 1079 29Q1087 57 1098 98Q1110 139 1120 182Q1131 225 1137 258Q1141 267 1158 275Q1175 283 1189 283Q1203 283 1211 275Q1220 267 1220 253Q1220 242 1215 218Q1210 195 1202 167Q1223 196 1247 225Q1271 255 1297 279Q1324 303 1350 317Q1377 332 1403 332Q1438 332 1450 307Q1463 282 1463 251Q1463 234 1459 216Q1456 199 1451 182Q1447 166 1441 150Q1461 182 1484 209Q1508 237 1535 253Q1562 270 1593 270Q1630 270 1644 248Q1658 226 1658 199Q1658 173 1649 143Q1641 114 1632 87Q1623 61 1623 42Q1623 31 1628 22Q1634 13 1650 13Q1677 13 1702 38Q1727 63 1748 99Q1769 136 1784 169L1800 151Q1784 109 1758 67Q1733 25 1699 -3Q1665 -31 1623 -31ZM1874 -44Q1811 -44 1778 -10Q1745 24 1745 75Q1745 120 1767 169Q1790 219 1828 262Q1866 306 1911 333Q1957 361 2002 361Q2027 361 2049 348Q2072 335 2072 296Q2072 258 2049 224Q2027 191 1990 165Q1954 139 1909 122Q1865 106 1821 102Q1820 96 1819 90Q1818 84 1818 74Q1818 66 1820 52Q1823 39 1830 25Q1838 12 1854 3Q1870 -6 1896 -6Q1938 -6 1980 18Q2023 42 2060 81Q2097 121 2122 169L2139 155Q2112 95 2070 50Q2028 6 1977 -19Q1927 -44 1874 -44ZM1830 133Q1856 138 1889 153Q1922 169 1952 192Q1982 216 2001 244Q2021 272 2021 301Q2021 312 2017 317Q2013 322 2003 322Q1979 322 1953 304Q1928 287 1903 259Q1879 232 1860 198Q1841 165 1830 133ZM2165 -30Q2146 -30 2127 -21Q2109 -12 2096 8Q2083 28 2083 58Q2083 91 2099 132Q2115 173 2142 214Q2170 255 2206 289Q2242 323 2282 344Q2322 365 2362 365Q2384 365 2396 357Q2409 350 2409 333Q2409 328 2407 323Q2406 318 2401 313Q2396 320 2386 322Q2377 325 2365 325Q2332 325 2302 306Q2272 288 2246 258Q2221 228 2202 193Q2184 159 2174 126Q2164 94 2164 71Q2164 51 2172 39Q2181 27 2197 27Q2224 27 2262 59Q2300 92 2339 152Q2379 213 2411 296Q2433 353 2457 412Q2481 472 2505 527Q2529 583 2552 626Q2575 669 2596 694Q2617 720 2635 720Q2645 720 2652 712Q2660 704 2660 692Q2660 676 2643 638Q2627 600 2601 547Q2575 495 2546 433Q2517 372 2491 308Q2465 244 2448 183Q2432 122 2432 69Q2432 44 2436 33Q2440 23 2453 23Q2475 23 2502 40Q2529 58 2557 91Q2585 125 2608 171L2624 158Q2603 104 2569 62Q2536 21 2497 -3Q2459 -26 2422 -26Q2383 -26 2367 -1Q2352 25 2352 57Q2352 73 2355 93Q2358 114 2363 136Q2332 88 2297 50Q2262 13 2228 -9Q2195 -30 2165 -30Z" fill="#00203f" style=""></path></g></g></g></svg>